<?xml version="1.0" encoding="UTF-8"?>
<svg version="1.1" xmlns="http://www.w3.org/2000/svg" width="1024" height="1024">
<path d="M0 0 C337.92 0 675.84 0 1024 0 C1024 337.92 1024 675.84 1024 1024 C686.08 1024 348.16 1024 0 1024 C0 686.08 0 348.16 0 0 Z " fill="#1A5B33" transform="translate(0,0)"/>
<path d="M0 0 C0.00219984 1.89563092 0.00219984 1.89563092 0.00444412 3.82955742 C0.0401698 33.84922993 0.0964451 63.86878754 0.17792095 93.88836747 C0.18793804 97.58573416 0.19778223 101.2831013 0.20751953 104.98046875 C0.2094609 105.71652749 0.21140228 106.45258624 0.21340248 107.21094979 C0.24439762 119.11876464 0.26139618 131.02656024 0.27319422 142.93440782 C0.28561869 155.15898509 0.31314926 167.38346153 0.35461307 179.60797513 C0.3797115 187.14716147 0.39311996 194.68618051 0.39142957 202.22540922 C0.39139621 208.0129618 0.41241152 213.80029257 0.44116783 219.58776665 C0.44967319 221.95723583 0.45141248 224.32674068 0.44580269 226.69621849 C0.4391512 229.93797568 0.45711233 233.17872397 0.48101807 236.42037964 C0.46937744 237.81828336 0.46937744 237.81828336 0.45750165 239.24442756 C0.56874844 247.79920408 2.98247654 255.60512852 8.9375 261.9375 C9.58589844 262.64777344 10.23429687 263.35804688 10.90234375 264.08984375 C18.10817523 270.65157856 25.64042714 271.29921522 34.96240234 271.31884766 C36.05567841 271.32889328 37.14895447 271.3389389 38.27536011 271.34928894 C41.8788807 271.38011027 45.48232702 271.39715343 49.0859375 271.4140625 C51.58843626 271.43277496 54.09092873 271.45234843 56.59341431 271.4727478 C62.50056545 271.51882496 68.40773097 271.5562362 74.31496489 271.58942068 C81.70353293 271.63146009 89.0919892 271.68700526 96.48046875 271.7421875 C109.653585 271.83894388 122.82675005 271.92372511 136 272 C136.15286469 271.06151718 136.30572937 270.12303436 136.46322632 269.15611267 C136.931266 266.404141 137.51969928 263.76433065 138.2265625 261.06640625 C138.566875 259.7215918 138.566875 259.7215918 138.9140625 258.34960938 C139.38756727 256.49331457 139.86933201 254.63910695 140.359375 252.78710938 C141.88404422 246.68405126 142.79691687 241.56368412 139.8359375 235.69140625 C139.11277344 234.63759766 139.11277344 234.63759766 138.375 233.5625 C122.51228731 208.34192803 117.21679896 174.54086667 123.12719727 145.35644531 C123.92650378 142.1748996 124.91656589 139.09552602 126 136 C126.21430664 135.34515625 126.42861328 134.6903125 126.64941406 134.015625 C131.45421454 119.35643751 138.45890505 106.13496677 148 94 C148.69867188 93.08605469 149.39734375 92.17210937 150.1171875 91.23046875 C168.79707258 67.46513453 197.94410039 50.77283136 228 47 C232.85268798 46.76493401 237.70463275 46.76913488 242.5625 46.75 C244.48545898 46.7190625 244.48545898 46.7190625 246.44726562 46.6875 C258.8662228 46.63734772 270.27493138 49.02057149 281.9375 53.1875 C282.78376953 53.48865723 283.63003906 53.78981445 284.50195312 54.10009766 C315.77696561 65.58923903 339.62580459 89.65548397 353.8125 119.5 C367.58620831 149.83717956 367.81779972 184.67987426 356.6875 215.875 C353.26071036 224.21279389 349.00179499 232.49730751 344 240 C344.43721815 246.02736444 346.07774643 251.89031529 347.5 257.75 C347.72558594 258.69488281 347.95117188 259.63976562 348.18359375 260.61328125 C349.02749911 264.12372781 349.85771645 267.57314935 351 271 C365.13486658 271.11720287 379.26965697 271.20483463 393.40491104 271.25906086 C399.96933153 271.28509393 406.53342432 271.32037783 413.09765625 271.37719727 C419.43895414 271.43174012 425.77993787 271.4614678 432.12145233 271.47438622 C434.53424775 271.48358607 436.94702703 271.50155093 439.35968781 271.52865028 C460.20416391 271.90398863 460.20416391 271.90398863 478 262 C479.54816344 259.86049647 479.54816344 259.86049647 480.6875 257.5625 C481.08324219 256.82128906 481.47898437 256.08007812 481.88671875 255.31640625 C482.25410156 254.55199219 482.62148438 253.78757812 483 253 C483.34721792 252.33381055 483.69443584 251.6676211 484.05217552 250.98124409 C485.43023765 246.64675002 485.28767964 242.50627229 485.2784729 237.98368835 C485.2842653 236.96669524 485.2900577 235.94970214 485.29602563 234.90189105 C485.31304674 231.4901447 485.31590399 228.07853345 485.31884766 224.66674805 C485.32814436 222.22268847 485.33831264 219.77863208 485.34928894 217.33457947 C485.37096553 212.07063847 485.38657104 206.80673296 485.39665604 201.54276085 C485.41124768 193.93197077 485.43678586 186.32124833 485.46498732 178.71049795 C485.5104465 166.36227371 485.54706492 154.01403972 485.578125 141.66577148 C485.60831412 129.67128794 485.64266606 117.67682822 485.68261719 105.68237305 C485.68507874 104.94291176 485.68754028 104.20345048 485.69007643 103.44158127 C485.7024511 99.73188454 485.71490762 96.02218809 485.72740483 92.31249177 C485.83095954 61.54169351 485.92001983 30.770869 486 0 C491.01547308 0.93728287 494.34913653 2.72855524 498.625 5.4375 C499.32923096 5.87980957 500.03346191 6.32211914 500.7590332 6.77783203 C506.24409542 10.31541288 510.9707125 14.23152358 515.66796875 18.7734375 C518.00838685 21.00800754 520.47436666 22.98031601 523 25 C545.84577887 47.09673694 556.15696913 80.37760566 557.10140419 111.32256699 C557.14938271 114.80823317 557.16923942 118.29282164 557.17700195 121.77880859 C557.18685875 123.74522812 557.18685875 123.74522812 557.19691467 125.75137329 C557.21768957 130.05038283 557.22829372 134.34939165 557.23828125 138.6484375 C557.24233913 140.14527019 557.24645632 141.64210272 557.25063133 143.13893509 C557.26962681 150.17994828 557.2838679 157.22095139 557.2922433 164.26198518 C557.30198642 172.31346153 557.32825299 180.36466085 557.36874419 188.41603982 C557.39918366 194.69007225 557.41373824 200.9640265 557.41702431 207.23813117 C557.41934373 210.96172028 557.42788686 214.68501175 557.45348549 218.40851974 C557.6954098 255.58685042 551.97702541 287.11289772 525.32421875 314.77734375 C497.76671004 341.8935907 463.5017783 343.63866513 426.94663978 343.40557575 C422.29426959 343.38025876 417.64188463 343.37819658 412.98945618 343.37347412 C404.2139813 343.36113208 395.4387101 343.32843165 386.66332418 343.28807616 C376.65821971 343.2430823 366.65310458 343.22130258 356.64792383 343.20129442 C336.098503 343.15968929 315.54926443 343.08951141 295 343 C293.64748681 337.61506534 292.29666425 332.22971012 290.94726562 326.84399414 C290.49002393 325.01999041 290.03235651 323.19609333 289.57421875 321.37231445 C286.91612178 310.78947445 284.30776558 300.19875344 281.83615112 289.57069397 C280.65175138 284.51284152 279.39568171 279.47423941 278.125 274.4375 C277.74819092 272.9359436 277.74819092 272.9359436 277.36376953 271.40405273 C276.57702894 268.26906995 275.78873269 265.13448214 275 262 C269.08749843 238.5032808 269.08749843 238.5032808 266.625 228.1875 C266.37339111 227.14734741 266.37339111 227.14734741 266.11669922 226.08618164 C265.46106961 223.30771247 265 220.86775538 265 218 C267.30859375 216.34375 267.30859375 216.34375 270.4375 214.5 C282.42037216 206.74222074 288.99523067 195.94270629 292 182 C292.24629247 178.46159819 292.23116265 174.9211319 292.25 171.375 C292.270625 170.42753906 292.29125 169.48007812 292.3125 168.50390625 C292.38120749 155.94761234 287.84003523 146.05262277 280.8125 135.8125 C269.8756136 124.8756136 258.32666322 119.56219392 243 119.375 C228.50977358 119.53999499 218.37553933 123.97988024 207.8828125 134.02734375 C196.27201469 146.14200637 193.3639355 159.84052357 193.6875 176.00390625 C194.32143275 190.01646142 200.69481787 201.45830183 210.67578125 211.015625 C213.92395657 213.78885704 217.28216445 215.90449269 221 218 C220.27105616 225.61554487 218.50631248 232.9386982 216.75 240.375 C216.31880859 242.24091797 216.31880859 242.24091797 215.87890625 244.14453125 C214.07920301 251.82274116 212.07795898 259.42016132 209.93890381 267.01040649 C207.45044435 275.87944369 205.22170231 284.81109287 203 293.75 C202.78311523 294.61897919 202.56623047 295.48795837 202.34277344 296.38327026 C199.58739813 307.42620276 196.8808981 318.47593524 194.4453125 329.59472656 C194.27773438 330.35881836 194.11015625 331.12291016 193.9375 331.91015625 C193.80214844 332.54058838 193.66679687 333.17102051 193.52734375 333.82055664 C192.78035346 336.90777066 191.87749759 339.94768579 191 343 C169.03255459 343.09377191 147.06514255 343.16413931 125.09753704 343.20724869 C114.89576685 343.22780424 104.6941216 343.25578954 94.49243164 343.30175781 C85.59239241 343.34184153 76.69244374 343.36748362 67.79231673 343.37635398 C63.08722161 343.38153256 58.38238537 343.39355485 53.67737389 343.42292023 C49.23271884 343.4504312 44.7884249 343.45837444 40.34369278 343.45243073 C38.72780825 343.45351526 37.11190937 343.46125386 35.49609947 343.4768219 C6.68480702 343.74037736 -19.47461093 334.16076558 -40.21875 313.9140625 C-61.92836648 291.73578438 -71.13376624 263.0875496 -71.16113281 232.58935547 C-71.16576995 231.24457669 -71.1707958 229.8997992 -71.17617798 228.55502319 C-71.18922888 224.91777257 -71.19573407 221.28054036 -71.20018864 217.64327002 C-71.20313484 215.35956044 -71.20724272 213.0758557 -71.21169281 210.79214859 C-71.22535649 203.61496344 -71.2350253 196.43778959 -71.2388947 189.26059234 C-71.24335486 181.03704615 -71.26081177 172.81366787 -71.2898953 164.59017265 C-71.31170371 158.19651113 -71.32160927 151.80289614 -71.32293582 145.40919793 C-71.32397148 141.60905543 -71.32960682 137.80907093 -71.34775543 134.00896835 C-71.52801547 93.93570156 -65.52507608 60.82453395 -40 29 C-39.401875 28.24460937 -38.80375 27.48921875 -38.1875 26.7109375 C-29.88196403 16.68839169 -18.97203076 9.74576706 -8 3 C-7.10023438 2.41992188 -6.20046875 1.83984375 -5.2734375 1.2421875 C-3 0 -3 0 0 0 Z " fill="#FDFDFD" transform="translate(269,485)"/>
<path d="M0 0 C2.42807182 1.25175624 4.5181049 2.57764772 6.69824219 4.21875 C7.46724854 4.79246338 8.23625488 5.36617676 9.02856445 5.95727539 C9.83865967 6.56949951 10.64875488 7.18172363 11.48339844 7.8125 C13.19894865 9.09324613 14.91509816 10.37318989 16.63183594 11.65234375 C17.89205566 12.59376221 17.89205566 12.59376221 19.17773438 13.55419922 C22.29354494 15.86760826 25.44301955 18.13011705 28.60839844 20.375 C29.73089754 21.17303184 30.8532916 21.97121147 31.97558594 22.76953125 C32.54760742 23.1763916 33.11962891 23.58325195 33.70898438 24.00244141 C44.35698325 31.59642891 54.91765205 39.30802148 65.43701172 47.07885742 C73.02191992 52.67635515 80.66145152 58.19634856 88.31201172 63.70361328 C92.05949627 66.40262128 95.80245689 69.10788884 99.54589844 71.8125 C101.04587698 72.89586304 102.54587698 73.97919638 104.04589844 75.0625 C107.04589844 77.22916667 110.04589844 79.39583333 113.04589844 81.5625 C113.78831787 82.09866943 114.5307373 82.63483887 115.2956543 83.18725586 C116.79655393 84.27128416 118.29736766 85.35543142 119.7980957 86.43969727 C123.53363811 89.13837655 127.27062098 91.83501312 131.01074219 94.52734375 C138.72052996 100.08054753 146.40337647 105.66700327 154.04589844 111.3125 C165.93178031 120.09000945 177.89086706 128.7591999 189.98339844 137.25 C196.85885456 142.07952241 203.63631746 147.03214554 210.3894043 152.03100586 C215.74830169 155.99586024 221.1348432 159.91917254 226.54589844 163.8125 C232.74253191 168.27258376 238.90566039 172.77509762 245.04589844 177.3125 C253.41513542 183.49526421 261.83647759 189.6025892 270.28125 195.68164062 C274.18453051 198.49254121 278.08394395 201.30879529 281.98339844 204.125 C282.74402588 204.67422119 283.50465332 205.22344238 284.28833008 205.78930664 C289.0677379 209.24142203 293.83859034 212.70504051 298.60449219 216.17578125 C304.78710147 220.66699942 310.98683148 225.13459734 317.18310547 229.60693359 C321.72163897 232.88304385 326.25926634 236.16040955 330.79638672 239.43847656 C334.53250752 242.13755062 338.27005283 244.83460414 342.01074219 247.52734375 C350.62101319 253.72925913 359.18793546 259.98557905 367.72143555 266.29272461 C372.30159405 269.67326165 376.90308339 273.01861095 381.54589844 276.3125 C387.82912033 280.77019121 394.02743457 285.33875626 400.22192383 289.91870117 C405.78226148 294.02531937 411.3723502 298.08800033 416.98339844 302.125 C423.90245189 307.10394906 430.75527961 312.15961866 437.54589844 317.3125 C429.38042227 330.27519341 420.78283482 342.88385037 411.97949219 355.41796875 C407.80500268 361.36219196 403.6701914 367.33336629 399.54589844 373.3125 C396.58195027 372.71371031 394.55761694 371.83861966 392.10449219 370.08203125 C391.44852051 369.61619629 390.79254883 369.15036133 390.11669922 368.67041016 C389.41270996 368.1604248 388.7087207 367.65043945 387.98339844 367.125 C387.23815918 366.59181152 386.49291992 366.05862305 385.72509766 365.50927734 C377.74720701 359.78185887 369.84825996 353.945711 361.95751953 348.09912109 C357.96960654 345.1447227 353.97739089 342.19617315 349.98339844 339.25 C349.19723145 338.67008301 348.41106445 338.09016602 347.60107422 337.49267578 C342.27176184 333.56783527 336.91685606 329.68010626 331.54589844 325.8125 C321.33070677 318.45657913 311.20763378 310.97743929 301.0859375 303.49365234 C292.14166771 296.88182459 283.1811618 290.30095959 274.11621094 283.85546875 C258.8517572 272.99835729 243.77182427 261.88958247 228.72167969 250.73828125 C221.15603622 245.13930576 213.56748668 239.58775704 205.85839844 234.1875 C199.03445106 229.40600893 192.35167083 224.4616454 185.70214844 219.44140625 C170.41142908 207.90379688 154.89039596 196.66375047 139.27978516 185.5637207 C130.71696216 179.47368489 122.26722893 173.23341933 113.81640625 166.98925781 C104.42629456 160.05471081 94.99286996 153.18305503 85.52050781 146.36132812 C79.97850434 142.36374023 74.47575856 138.31543165 68.98339844 134.25 C62.3428949 129.33871683 55.64435262 124.52270024 48.88500977 119.77661133 C37.22538093 111.58573901 25.71185668 103.19232084 14.23339844 94.75 C13.04157959 93.87432373 13.04157959 93.87432373 11.82568359 92.98095703 C10.70299072 92.15313721 10.70299072 92.15313721 9.55761719 91.30859375 C8.85685059 90.79409668 8.15608398 90.27959961 7.43408203 89.74951172 C5.81761519 88.51929142 4.27599295 87.19178621 2.75292969 85.84765625 C0.72461486 84.06734812 0.72461486 84.06734812 -1.37475586 84.57495117 C-3.53492944 85.34116984 -5.07342731 86.24240904 -6.93066406 87.578125 C-7.92247681 88.28473267 -7.92247681 88.28473267 -8.93432617 89.00561523 C-9.64210205 89.51938721 -10.34987793 90.03315918 -11.07910156 90.5625 C-11.82619385 91.0975415 -12.57328613 91.63258301 -13.34301758 92.18383789 C-15.71790872 93.88719272 -18.08632259 95.59927648 -20.45410156 97.3125 C-21.94996738 98.38963952 -23.44605703 99.46646829 -24.94238281 100.54296875 C-28.69543666 103.24622309 -32.44253939 105.95760871 -36.18798828 108.67138672 C-39.9405497 111.38898184 -43.69758949 114.10037009 -47.45410156 116.8125 C-48.19724609 117.34939453 -48.94039063 117.88628906 -49.70605469 118.43945312 C-53.44163591 121.13827286 -57.17873184 123.8349467 -60.91894531 126.52734375 C-69.43413327 132.66066095 -77.9086034 138.84510679 -86.34838867 145.08178711 C-91.69245918 149.02657149 -97.06319469 152.93201467 -102.45410156 156.8125 C-112.66943942 164.16821348 -122.79236969 171.64756327 -132.9140625 179.13134766 C-141.85833229 185.74317541 -150.8188382 192.32404041 -159.88378906 198.76953125 C-171.12006573 206.76153085 -182.25820878 214.88660514 -193.34741211 223.08105469 C-198.69179777 227.02609757 -204.06286436 230.93177689 -209.45410156 234.8125 C-219.66943942 242.16821348 -229.79236969 249.64756327 -239.9140625 257.13134766 C-248.85833229 263.74317541 -257.8188382 270.32404041 -266.88378906 276.76953125 C-280.51736961 286.46665544 -294.00000797 296.36864689 -307.45410156 306.3125 C-320.47027005 315.93268486 -333.54651888 325.46267155 -346.68359375 334.91699219 C-355.14003929 341.00489281 -363.57261052 347.12169408 -371.95410156 353.3125 C-378.44211584 358.09978571 -384.93527864 362.87971919 -391.45410156 367.625 C-392.21400391 368.18251953 -392.97390625 368.74003906 -393.75683594 369.31445312 C-394.46130859 369.82556641 -395.16578125 370.33667969 -395.89160156 370.86328125 C-396.5090625 371.31356689 -397.12652344 371.76385254 -397.76269531 372.2277832 C-399.45410156 373.3125 -399.45410156 373.3125 -402.45410156 374.3125 C-402.90398437 373.631875 -403.35386719 372.95125 -403.81738281 372.25 C-408.15899023 365.70713671 -412.56401794 359.21184329 -417.02246094 352.74804688 C-419.63826924 348.95530425 -422.24461752 345.15651948 -424.83691406 341.34765625 C-425.40772705 340.50984619 -425.97854004 339.67203613 -426.56665039 338.80883789 C-427.66690913 337.19313409 -428.76579629 335.57649505 -429.86303711 333.95874023 C-433.26187146 328.97224662 -436.79110567 324.1082886 -440.45410156 319.3125 C-439.13882947 316.27267053 -437.94686691 314.64080328 -435.20800781 312.7890625 C-434.54551025 312.33281494 -433.8830127 311.87656738 -433.20043945 311.40649414 C-432.47977295 310.92172607 -431.75910645 310.43695801 -431.01660156 309.9375 C-429.46322643 308.86775882 -427.91119164 307.79606928 -426.36035156 306.72265625 C-425.55210937 306.16465332 -424.74386719 305.60665039 -423.91113281 305.03173828 C-419.89203322 302.21948676 -415.95528319 299.29831016 -412.01660156 296.375 C-403.61975742 290.15894356 -395.1668637 284.02491512 -386.68798828 277.92138672 C-382.94050373 275.22237872 -379.19754311 272.51711116 -375.45410156 269.8125 C-373.95412302 268.72913696 -372.45412302 267.64580362 -370.95410156 266.5625 C-370.21160156 266.02625 -369.46910156 265.49 -368.70410156 264.9375 C-361.95410156 260.0625 -361.95410156 260.0625 -359.7043457 258.43774414 C-358.20344607 257.35371584 -356.70263234 256.26956858 -355.2019043 255.18530273 C-351.46636189 252.48662345 -347.72937902 249.78998688 -343.98925781 247.09765625 C-333.0879227 239.24588694 -322.23466093 231.32952625 -311.45410156 223.3125 C-310.81193254 223.00734624 -310.16976353 222.70219248 -309.50813484 222.38779163 C-306.9030664 220.9384088 -305.30334979 219.66985815 -303.45410156 217.3125 C-302.22509495 212.03348695 -302.3833181 206.77813676 -302.45410156 201.39306641 C-302.44649166 199.75671472 -302.43536958 198.12037616 -302.42100525 196.48406982 C-302.39201254 192.05019063 -302.41208861 187.61773581 -302.44102097 183.18390703 C-302.46291708 178.5473571 -302.43962626 173.91103873 -302.42114258 169.27450562 C-302.39301515 160.4984413 -302.405486 151.72292364 -302.43256664 142.94687498 C-302.46142334 132.95410357 -302.44498533 122.96156698 -302.4247551 112.96879315 C-302.38416129 92.41645935 -302.40638712 71.8648316 -302.45410156 51.3125 C-279.02410156 51.3125 -255.59410156 51.3125 -231.45410156 51.3125 C-231.45410156 88.6025 -231.45410156 125.8925 -231.45410156 164.3125 C-224.79347865 160.07392178 -218.30130682 155.8966918 -211.95410156 151.25 C-211.19709961 150.69981201 -210.44009766 150.14962402 -209.66015625 149.58276367 C-203.17871565 144.86408859 -196.73072458 140.09980527 -190.2824707 135.3359375 C-184.57030134 131.1204706 -178.81461575 126.97218303 -173.02832031 122.859375 C-168.90520582 119.92707267 -164.80444962 116.96401724 -160.70410156 114 C-159.94605225 113.45206787 -159.18800293 112.90413574 -158.40698242 112.33959961 C-156.86077059 111.22177547 -155.31462843 110.10385496 -153.76855469 108.98583984 C-150.74502069 106.79983752 -147.72036605 104.61538938 -144.69555664 102.43115234 C-143.19787775 101.34961318 -141.70031968 100.26790669 -140.20288086 99.18603516 C-136.46702984 96.48708827 -132.72970923 93.79022458 -128.98925781 91.09765625 C-121.27947183 85.54445376 -113.59652525 79.95812795 -105.95410156 74.3125 C-96.10002335 67.03307378 -86.16835823 59.86419676 -76.22460938 52.70800781 C-67.76817082 46.62011222 -59.33523114 40.50378778 -50.95410156 34.3125 C-37.22332718 24.16984336 -23.35542781 14.21959323 -9.45410156 4.3125 C-8.86935059 3.83039063 -8.28459961 3.34828125 -7.68212891 2.8515625 C-7.08480957 2.37460938 -6.48749023 1.89765625 -5.87207031 1.40625 C-5.33735107 0.95958984 -4.80263184 0.51292969 -4.25170898 0.05273438 C-2.45410156 -0.6875 -2.45410156 -0.6875 0 0 Z " fill="#FCFDFD" transform="translate(513.4541015625,180.6875)"/>
<path d="M0 0 C2.475 0.495 2.475 0.495 5 1 C4.01 1.66 3.02 2.32 2 3 C1.54548157 4.84261021 1.54548157 4.84261021 1.61523914 6.9942646 C1.6057826 7.83426164 1.59632606 8.67425867 1.58658296 9.53971016 C1.59143053 10.46771207 1.59627811 11.39571398 1.60127258 12.35183716 C1.59462576 13.33359857 1.58797893 14.31535999 1.58113068 15.32687175 C1.56238408 18.63745159 1.5651138 21.94767371 1.56762695 25.25830078 C1.55861692 27.62310298 1.54829159 29.98790048 1.53674316 32.35269165 C1.51193682 38.12097956 1.50091019 43.88917689 1.49586574 49.65751328 C1.48926107 56.36780461 1.46580775 63.07800446 1.44127061 69.78825031 C1.39795933 81.75546326 1.36801742 93.722671 1.34643555 105.68994141 C1.32543883 117.31692058 1.29817522 128.94385712 1.26245117 140.57080078 C1.26025235 141.28715427 1.25805352 142.00350776 1.25578807 142.74156894 C1.24471874 146.33520509 1.23352587 149.92884085 1.22227156 153.52247643 C1.12902503 183.34828049 1.05767755 213.17410465 1 243 C0.67 243 0.34 243 0 243 C0 162.81 0 82.62 0 0 Z " fill="#CFE3D8" transform="translate(755,485)"/>
<path d="M0 0 C0.66 0.33 1.32 0.66 2 1 C1.57178955 1.42297363 1.1435791 1.84594727 0.70239258 2.28173828 C-1.26361643 4.22677299 -3.22557295 6.17584829 -5.1875 8.125 C-5.86103516 8.79015625 -6.53457031 9.4553125 -7.22851562 10.140625 C-11.04739081 13.94087153 -14.62843098 17.79699551 -18 22 C-18.66 21.67 -19.32 21.34 -20 21 C-17.98810017 18.61730789 -15.96387261 16.24538987 -13.9375 13.875 C-13.37611328 13.20984375 -12.81472656 12.5446875 -12.23632812 11.859375 C-8.45442386 7.45075518 -4.49746034 3.67817776 0 0 Z " fill="#E1EEE6" transform="translate(243,500)"/>
<path d="M0 0 C0.89267578 0.00322266 1.78535156 0.00644531 2.70507812 0.00976562 C4.09823242 0.02233398 4.09823242 0.02233398 5.51953125 0.03515625 C6.45990234 0.03966797 7.40027344 0.04417969 8.36914062 0.04882812 C10.69016837 0.06060999 13.01106769 0.07706067 15.33203125 0.09765625 C14.34203125 1.58265625 14.34203125 1.58265625 13.33203125 3.09765625 C10.45587204 3.37455357 7.82773683 3.46976392 4.95703125 3.41015625 C3.80460937 3.41499023 3.80460937 3.41499023 2.62890625 3.41992188 C-1.26600836 3.38285954 -4.32484622 3.34130266 -7.66796875 1.09765625 C-4.78531726 0.13677242 -2.99134604 -0.01905316 0 0 Z " fill="#3B6B4F" transform="translate(504.66796875,528.90234375)"/>
<path d="M0 0 C0.33 0 0.66 0 1 0 C1.24819571 6.57718642 0.31765837 12.56559528 -1 19 C-1.18691406 19.93457031 -1.37382812 20.86914062 -1.56640625 21.83203125 C-1.70949219 22.54746094 -1.85257812 23.26289062 -2 24 C-2.99 24 -3.98 24 -5 24 C-3.42910884 15.97921457 -1.72663382 7.98855913 0 0 Z " fill="#336145" transform="translate(467,795)"/>
<path d="M0 0 C0.99 0.33 1.98 0.66 3 1 C0.03 3.64 -2.94 6.28 -6 9 C-7.32 8.34 -8.64 7.68 -10 7 C-8.4050992 5.80008401 -6.79873853 4.61538682 -5.1875 3.4375 C-3.84751953 2.44556641 -3.84751953 2.44556641 -2.48046875 1.43359375 C-1.66191406 0.96050781 -0.84335937 0.48742187 0 0 Z " fill="#28573D" transform="translate(471,293)"/>
<path d="M0 0 C0.67578125 1.68359375 0.67578125 1.68359375 1 4 C-0.14453125 6.47265625 -0.14453125 6.47265625 -1.8125 9.0625 C-2.62654297 10.34833984 -2.62654297 10.34833984 -3.45703125 11.66015625 C-4.6329837 13.44343604 -5.8151013 15.22265196 -7 17 C-6.70368676 10.18479548 -3.69535803 5.61649218 0 0 Z " fill="#345F46" transform="translate(619,713)"/>
<path d="M0 0 C-0.66 0 -1.32 0 -2 0 C-2 0.66 -2 1.32 -2 2 C-6.95 3.485 -6.95 3.485 -12 5 C-12 4.01 -12 3.02 -12 2 C-10.56656 1.46809459 -9.12804633 0.94984742 -7.6875 0.4375 C-6.48673828 0.00244141 -6.48673828 0.00244141 -5.26171875 -0.44140625 C-3 -1 -3 -1 0 0 Z " fill="#29593E" transform="translate(480,535)"/>
<path d="M0 0 C1 3 1 3 0.375 5.375 C-1.27960884 8.53379869 -3.39000967 10.59606154 -6 13 C-6.66 12.67 -7.32 12.34 -8 12 C-5.36 8.04 -2.72 4.08 0 0 Z " fill="#2C5B3F" transform="translate(945,506)"/>
<path d="M0 0 C-0.804375 0.61875 -1.60875 1.2375 -2.4375 1.875 C-5.03874519 3.74164041 -5.03874519 3.74164041 -6 6 C-8.0625 6.625 -8.0625 6.625 -10 7 C-10 6.01 -10 5.02 -10 4 C-8.57421875 2.578125 -8.57421875 2.578125 -6.6875 1.25 C-6.07261719 0.80140625 -5.45773437 0.3528125 -4.82421875 -0.109375 C-3 -1 -3 -1 0 0 Z " fill="#245639" transform="translate(298,422)"/>
<path d="M0 0 C0.66 0.33 1.32 0.66 2 1 C0.5361389 5.39158329 -1.97831338 5.87947433 -6 8 C-5.6875 6.0625 -5.6875 6.0625 -5 4 C-4.01 3.67 -3.02 3.34 -2 3 C-2 2.34 -2 1.68 -2 1 C-1.34 0.67 -0.68 0.34 0 0 Z " fill="#295A3B" transform="translate(167,426)"/>
<path d="M0 0 C-1.38801071 3.35435922 -2.88629 5.11290303 -6 7 C-6.99 7 -7.98 7 -9 7 C-9 6.34 -9 5.68 -9 5 C-7.5390625 3.7109375 -7.5390625 3.7109375 -5.625 2.375 C-4.99851563 1.92898438 -4.37203125 1.48296875 -3.7265625 1.0234375 C-2 0 -2 0 0 0 Z " fill="#2B593D" transform="translate(224,474)"/>
<path d="M0 0 C0.66 0.66 1.32 1.32 2 2 C0.02 3.98 -1.96 5.96 -4 8 C-6 7 -6 7 -7 5 C-4.69 3.35 -2.38 1.7 0 0 Z " fill="#275A3C" transform="translate(317,405)"/>
<path d="M0 0 C0.99 0.66 1.98 1.32 3 2 C2.67 2.33 2.34 2.66 2 3 C1.60851239 4.51165654 1.26027543 6.03469632 0.9375 7.5625 C0.76089844 8.38878906 0.58429688 9.21507812 0.40234375 10.06640625 C0.26957031 10.70449219 0.13679688 11.34257813 0 12 C-0.66 11.67 -1.32 11.34 -2 11 C-1.34 7.37 -0.68 3.74 0 0 Z " fill="#2A5C3F" transform="translate(484,728)"/>
<path d="M0 0 C3.82097239 0.53069061 6.06171403 1.49701566 9 4 C8.67 4.99 8.34 5.98 8 7 C6.66382648 6.02471263 5.3311249 5.04466681 4 4.0625 C3.2575 3.51722656 2.515 2.97195313 1.75 2.41015625 C1.1725 1.94480469 0.595 1.47945313 0 1 C0 0.67 0 0.34 0 0 Z " fill="#26533A" transform="translate(927,480)"/>
<path d="M0 0 C0.66 0.33 1.32 0.66 2 1 C-2.43076923 6.78461538 -2.43076923 6.78461538 -5.3125 7.875 C-5.869375 7.91625 -6.42625 7.9575 -7 8 C-5.61918777 3.8575633 -3.40174442 2.67796901 0 0 Z " fill="#2A5A3F" transform="translate(789,803)"/>
<path d="M0 0 C2.1875 -0.3125 2.1875 -0.3125 5 0 C7.8125 2.3125 7.8125 2.3125 10 5 C10 5.99 10 6.98 10 8 C8.33055479 6.85821872 6.6645052 5.71147095 5 4.5625 C4.071875 3.92441406 3.14375 3.28632813 2.1875 2.62890625 C1.465625 2.09136719 0.74375 1.55382812 0 1 C0 0.67 0 0.34 0 0 Z " fill="#2D5941" transform="translate(816,400)"/>
<path d="M0 0 C0.99 0.33 1.98 0.66 3 1 C2.67 3.64 2.34 6.28 2 9 C0 7 0 7 -0.125 3.375 C-0.08375 2.26125 -0.0425 1.1475 0 0 Z " fill="#326146" transform="translate(391,625)"/>
<path d="M0 0 C-0.33 0.99 -0.66 1.98 -1 3 C-3.5625 4.1875 -3.5625 4.1875 -6 5 C-6.33 4.01 -6.66 3.02 -7 2 C-4.35261084 0.5393715 -3.10551666 0 0 0 Z " fill="#2D5A40" transform="translate(466,539)"/>
<path d="M0 0 C2.9375 0.75 2.9375 0.75 6 2 C6.875 4.125 6.875 4.125 7 6 C3.535 4.02 3.535 4.02 0 2 C0 1.34 0 0.68 0 0 Z " fill="#2A583F" transform="translate(764,487)"/>
<path d="M0 0 C2.99324263 1.0975223 3.84610901 1.67682892 5.25 4.625 C5.4975 5.40875 5.745 6.1925 6 7 C3.36 5.35 0.72 3.7 -2 2 C-1.34 1.34 -0.68 0.68 0 0 Z " fill="#295940" transform="translate(708,319)"/>
<path d="M0 0 C0.99 0 1.98 0 3 0 C3.33 2.31 3.66 4.62 4 7 C3.34 7 2.68 7 2 7 C0 4 0 4 0 0 Z " fill="#2B5C3F" transform="translate(542,747)"/>
<path d="M0 0 C0.66 0.99 1.32 1.98 2 3 C1.3125 6.125 1.3125 6.125 0 9 C-0.99 9.33 -1.98 9.66 -3 10 C-2.01 6.7 -1.02 3.4 0 0 Z " fill="#305D43" transform="translate(626,697)"/>
<path d="M0 0 C0.66 0 1.32 0 2 0 C1.125 5.75 1.125 5.75 0 8 C-0.66 8 -1.32 8 -2 8 C-1.125 1.125 -1.125 1.125 0 0 Z " fill="#27573D" transform="translate(206,547)"/>
<path d="M0 0 C0.33 0.99 0.66 1.98 1 3 C-0.98 4.32 -2.96 5.64 -5 7 C-4.60196439 4.11424181 -4.20990931 3.17810487 -1.9375 1.25 C-1.298125 0.8375 -0.65875 0.425 0 0 Z " fill="#295A3E" transform="translate(284,429)"/>
<path d="M0 0 C0.66 0.66 1.32 1.32 2 2 C-0.25 4.0625 -0.25 4.0625 -3 6 C-4.32 5.67 -5.64 5.34 -7 5 C-4.69 3.35 -2.38 1.7 0 0 Z " fill="#2D5B41" transform="translate(501,271)"/>
<path d="M0 0 C0.33 0.99 0.66 1.98 1 3 C0.01 3.33 -0.98 3.66 -2 4 C-2.33 4.99 -2.66 5.98 -3 7 C-3.66 6.67 -4.32 6.34 -5 6 C-2.25 1.125 -2.25 1.125 0 0 Z " fill="#265A3C" transform="translate(484,612)"/>
<path d="M0 0 C0.66 0.66 1.32 1.32 2 2 C0.68 3.32 -0.64 4.64 -2 6 C-2.99 5.67 -3.98 5.34 -5 5 C-3.35 3.35 -1.7 1.7 0 0 Z " fill="#245438" transform="translate(244,458)"/>
</svg>
